<svg version="1.2" xmlns="http://www.w3.org/2000/svg" viewBox="0 0 1024 1024" width="1024" height="1024">
	<style>
		.s0 { fill: #ffffff } 
		.s1 { fill: #333333 } 
		.s2 { fill: #1a7476 } 
	</style>
	<path fill-rule="evenodd" class="s0" d="m512 1024c-283.14 0-512-228.86-512-512 0-283.14 228.86-512 512-512 283.14 0 512 228.86 512 512 0 283.14-228.86 512-512 512z"/>
	<path class="s1" d="m308.97 650.05q1.08 1.33 2.17 2.65 0.7 0.85 1.42 1.69c5.82 6.94 11.97 13.7 18.49 20.22l435.89-435.89c-21.69-21.69-45.83-39.46-71.5-53.33q-0.7-0.38-1.39-0.75-1.96-1.05-3.96-2.07-0.87-0.45-1.73-0.88-2.01-1.02-4.04-2.02c-23.73-11.59-48.64-19.95-74.07-25.08q-7.29-1.47-14.63-2.59 0 0-0.01 0-3.66-0.55-7.34-1.03h-0.01q-3.68-0.47-7.37-0.85-12.39-1.28-24.83-1.58-2.94-0.06-5.87-0.07-0.6 0-1.19-0.01-0.46 0.01-0.91 0.01-2.68 0.02-5.35 0.06-1.44 0.03-2.88 0.08-1.54 0.05-3.08 0.11-2.76 0.11-5.5 0.27-0.84 0.05-1.68 0.1c-15.09 0.95-30.12 2.99-44.97 6.15q-3.3 0.7-6.58 1.48-0.21 0.04-0.42 0.1-3.17 0.76-6.33 1.57-0.3 0.07-0.61 0.16-3.11 0.81-6.2 1.7-0.33 0.09-0.67 0.19-3.09 0.89-6.17 1.84-0.32 0.1-0.63 0.19-3.11 0.97-6.2 2-0.27 0.09-0.53 0.18-3.14 1.06-6.26 2.18-0.19 0.08-0.4 0.14-3.18 1.15-6.35 2.38-0.1 0.05-0.22 0.08-3.26 1.26-6.48 2.6c-33.3 13.84-64.67 33.76-92.4 59.79q-1.41 1.32-2.8 2.66-2.19 2.1-4.35 4.24-2.15 2.15-4.23 4.34c-25.08 26.07-44.67 55.46-58.78 86.73q-3.1 6.85-5.83 13.82-0.27 0.68-0.53 1.36-0.81 2.1-1.61 4.21c-15.88 42.78-21.94 88.37-18.19 133.3 1.15 13.7 3.19 27.35 6.16 40.83q0.6 2.71 1.25 5.42 0.28 1.18 0.57 2.36 0.61 2.46 1.26 4.92 0.4 1.54 0.84 3.07 0.34 1.23 0.7 2.46 0.83 2.92 1.73 5.83 0.18 0.59 0.36 1.17 1.18 3.81 2.47 7.59c10.76 31.64 26.79 61.88 48.12 89.34q1.81 2.3 3.65 4.58zm37.55-388.65l26.16 17.44v51.62l-26.16 17.44-26.16 17.44-26.16-17.44-9.53-6.35c13.53-31.12 32.34-59.34 56-84.05zm203.37-92.94l9.76 6.51v51.62l-26.16 17.44-26.16 17.44-46.15-30.77-6.17-4.11v-42.45c30.19-10.41 61.74-15.69 93.99-15.69q0.44-0.01 0.89 0.01zm92.09 162v-51.62l26.16-17.44 26.16-17.44 23.46 15.64-72.83 72.83zm-132.19 137.12l-2.46 1.64-52.33-34.88v-51.62l10.98-7.32 41.34-27.56 26.16 17.44 26.16 17.44v35zm-179.44 174.51v-51.62l26.16-17.44 26.16-17.44 23.46 15.64-72.83 72.83zm88.49-86.44l-26.16-17.44v-51.62l26.16-17.44 26.16-17.44 26.16 17.44 22.23 14.82-72.83 72.83zm203.14-225.19l-26.16 17.44-26.16 17.44-52.32-34.88v-51.62l52.32-34.88 26.16 17.44 26.16 17.44zm2.67 22.26l-45 45v-15l26.16-17.44zm-179.65-108.76l26.16 17.44 26.16 17.44v51.62l-26.16 17.44-26.16 17.44-26.16-17.44-26.16-17.44v-51.62l26.16-17.44zm-36.16 121.31l26.16 17.45v51.62l-52.32 34.88-26.16-17.44-26.16-17.44v-51.62l26.16-17.44 26.16-17.44zm-62.32 103.88l26.16 17.44v51.62l-26.16 17.44-26.16 17.44-26.16-17.44-20.57-13.72q-3.19-10.31-5.59-20.79v-34.56l26.16-17.44 26.16-17.44zm-36.17 121.32v27.94c-9.53-14.02-17.77-28.84-24.69-44.4zm421.84-345.29l-27.89-18.59v-12.8q17.8 11.4 33.87 25.42zm-74.73-55.63q13.8 5.6 26.85 12.53v24.51l-26.16 17.44-26.16 17.44-26.16-17.44-26.16-17.44v-51.62l6.25-4.17c24.51 3.13 48.46 9.39 71.54 18.75zm-222.46 2.32v34.72l-26.16 17.44-26.16 17.44-26.16-17.44-1.21-0.81c23.68-21.54 50.42-38.77 79.69-51.35zm-150.81 173.4l26.16 17.44v51.62l-49.37 32.92q-0.2-5.28-0.21-10.59c0-32.99 5.52-65.24 16.41-96.07z"/>
	<path class="s2" d="m759.84 687.31q0.47-1.11 0.94-2.23 0.76-1.86 1.51-3.72 0.45-1.12 0.88-2.26c15.37-39.59 22.26-81.7 20.67-123.56q-0.02-0.63-0.05-1.28-0.12-2.81-0.29-5.61-0.01-0.29-0.03-0.57-0.18-2.99-0.43-5.96c-1.24-15.16-3.59-30.24-7.06-45.12q-0.87-3.74-1.84-7.46-0.96-3.7-2.01-7.38-0.01-0.04-0.02-0.07-1.05-3.65-2.18-7.28-0.01-0.06-0.03-0.11-1.15-3.66-2.39-7.3c-10.8-31.61-26.88-61.81-48.25-89.23q-1.65-2.11-3.35-4.21-1.2-1.49-2.43-2.96-0.66-0.79-1.32-1.57-8.64-10.33-18.34-20.04l-5.16 5.16-14.42 14.42-83.84 83.83-3.42 3.42-60.3 60.3-20 20-2.64 2.64-30.11 30.11-96.89 96.89-10.84 10.84-76.42 76.42-13.83 13.83-18.03 18.03c18.94 18.94 39.73 34.89 61.78 47.87q2.66 1.57 5.36 3.08 1.29 0.72 2.58 1.42 1.69 0.94 3.4 1.84 1.33 0.71 2.67 1.41 1.88 0.97 3.75 1.91c28.95 14.55 59.72 24.25 91.1 29.1q3.66 0.57 7.32 1.04h0.01q3.67 0.48 7.34 0.87 13.31 1.41 26.69 1.67 2.15 0.04 4.31 0.05 0.81 0.01 1.62 0.02 0.62-0.01 1.24-0.01 2.23-0.01 4.46-0.05 1.67-0.03 3.34-0.08 0.98-0.03 1.97-0.07 3.3-0.12 6.59-0.3 0.39-0.03 0.79-0.05c15.01-0.89 29.97-2.88 44.75-5.95q3.46-0.72 6.9-1.52 0.06-0.02 0.12-0.03 3.39-0.79 6.77-1.66 0.11-0.03 0.23-0.06 3.33-0.86 6.64-1.79 0.16-0.05 0.32-0.09 3.27-0.93 6.54-1.93 0.19-0.06 0.38-0.12 3.24-1 6.46-2.07 0.2-0.07 0.39-0.13 3.22-1.08 6.42-2.22 0.18-0.06 0.35-0.13 3.23-1.16 6.44-2.4 0.12-0.04 0.23-0.09c37.07-14.33 71.92-36.1 102.27-65.29q2.19-2.08 4.34-4.23 2.14-2.15 4.24-4.35 1.35-1.41 2.69-2.83c25.62-27.29 45.31-58.09 59.12-90.8zm-20.03-28.58l-26.16-17.44v-51.62l26.16-17.44 24.04-16.03q0.22 5.56 0.23 11.14c0 33.15-5.58 65.56-16.57 96.52zm-265.72 196.8l-9.75-6.5v-51.62l26.16-17.44 26.16-17.44 26.16 17.44 26.18 17.44v42.74c-29.93 10.21-61.19 15.4-93.13 15.4q-0.9 0-1.78-0.02zm42.6-300.74l26.14 17.43 26.17 17.44v51.62l-26.16 17.44-26.16 17.44-26.16-17.44-26.16-17.44v-34.15zm62.31 103.87l26.16 17.44 26.16 17.44v51.62l-26.16 17.44-26.16 17.44-26.16-17.44-26.16-17.44v-51.62l26.16-17.44zm-176.98 34.88l26.16-17.44 26.16-17.44 26.16 17.44 26.16 17.44v51.62l-26.16 17.44-26.16 17.44-26.16-17.44-26.16-17.44zm-0.11-23.96l42.44-42.44v14.15l-26.16 17.44zm187.09 127.83l26.16-17.44 26.16-17.44 26.16 17.44 1.71 1.14c-23.82 21.6-50.73 38.83-80.2 51.38v-35.08zm26.16-138.68l-26.16-17.45v-51.62l26.16-17.44 26.16-17.44 26.16 17.44 26.16 17.44v51.62l-26.16 17.44-26.16 17.44zm62.32-103.88l-26.16-17.44v-51.62l26.16-17.44 26.16-17.44 26.16 17.44 21.65 14.43q2.5 8.14 4.51 16.4v38.23l-26.16 17.44-26.16 17.44zm62.07-104.05l-25.9-17.27v-29.18c10.05 14.63 18.7 30.14 25.9 46.45zm-45.9-68.89v51.62l-26.16 17.44-26.16 17.44-22.95-15.3 72.83-72.83zm-88.49 86.44l26.16 17.44v51.62l-26.16 17.44-26.16 17.44-26.16-17.44-21.72-14.48 72.83-72.83zm-225.58 223.56l2.44 1.63v51.62l-26.16 17.44-26.16 17.44-22.95-15.3zm-87.26 87.25l27.38 18.25v12.26q-17.33-11.19-33.01-24.87zm47.38 42.3v-24.04l26.16-17.44 26.16-17.44 26.16 17.44 26.16 17.44v51.62l-6.11 4.07c-24.28-3.16-47.99-9.39-70.84-18.65q-14.24-5.8-27.69-13zm337.78-58.86l-26.16-17.44v-51.62l26.16-17.44 26.16-17.44 26.16 17.44 10.18 6.79c-13.58 31.09-32.43 59.28-56.14 83.96z"/>
</svg>