<?xml version="1.0" encoding="UTF-8"?>
<svg id="Ebene_1" data-name="Ebene 1" xmlns="http://www.w3.org/2000/svg" viewBox="0 0 320 250">
  <g id="a">
    <rect width="320" height="250" fill="#c6c6c6"/>
  </g>
  <g id="b">
    <rect width="29.99" height="250" fill="#1d1d1b" isolation="isolate" opacity=".5"/>
    <rect x="289.98" width="29.99" height="250" fill="#1d1d1b" isolation="isolate" opacity=".5"/>
  </g>
  <g id="c">
    <g>
      <path d="M9.7,233.95c0-.25.07-.46.18-.71.11-.21.28-.39.49-.53.21-.11.46-.18.74-.18.42,0,.74.14,1.02.39.28.28.39.6.39,1.02s-.14.78-.39,1.02c-.28.28-.6.42-1.02.42s-.49-.07-.71-.18-.39-.28-.53-.49c-.11-.21-.18-.49-.18-.81v.04h.01ZM10.44,233.98c0,.28.07.49.18.63.14.14.28.21.49.21s.35-.07.49-.21c.14-.14.18-.35.18-.63s-.07-.46-.18-.63c-.14-.14-.28-.21-.49-.21s-.35.07-.49.21c-.14.14-.18.35-.18.63Z" fill="#1d1d1b"/>
      <path d="M15.59,235.36h-.74v-1.41c0-.28,0-.49-.04-.56,0-.07-.07-.14-.14-.21-.07-.04-.14-.07-.25-.07s-.25,0-.35.11-.18.18-.21.28-.07.32-.07.63v1.23h-.74v-2.75h.67v.39c.25-.32.53-.46.92-.46s.32,0,.42.07c.14.07.25.14.32.21.07.11.11.18.14.32,0,.11.04.28.04.49v1.69l.04.04h-.01Z" fill="#1d1d1b"/>
      <path d="M16.33,235.36v-3.77h.74v3.77h-.74Z" fill="#1d1d1b"/>
      <path d="M17.46,232.61h.78l.67,1.94.63-1.94h.74l-.95,2.65-.18.49c-.07.18-.14.28-.18.35-.07.07-.14.14-.21.21-.07.04-.18.11-.28.11s-.25.04-.39.04-.28,0-.42-.04l-.07-.56h.32c.18,0,.28-.04.39-.14.07-.11.14-.21.18-.39l-1.06-2.75.04.04h-.01Z" fill="#1d1d1b"/>
      <path d="M11.85,244.89v-5.26h-1.87v-1.06h5.01v1.06h-1.87v5.26h-1.27Z" fill="#1d1d1b"/>
      <path d="M17.6,238.54c.6,0,1.09.21,1.45.67.42.53.6,1.38.6,2.58s-.21,2.05-.63,2.58c-.35.42-.81.63-1.45.63s-1.09-.25-1.48-.71c-.39-.46-.56-1.31-.56-2.54s.21-2.05.63-2.58c.35-.42.81-.63,1.45-.63h-.01ZM17.6,239.56c-.14,0-.28.04-.39.14-.11.11-.21.25-.28.49-.07.32-.14.85-.14,1.59s.04,1.23.11,1.52.18.46.28.56.25.14.39.14.28-.04.39-.14c.11-.11.21-.25.28-.49.07-.32.14-.85.14-1.59s-.04-1.23-.11-1.52-.18-.46-.28-.56-.25-.14-.39-.14Z" fill="#1d1d1b"/>
    </g>
    <g>
      <path d="M299.72,234.06c0-.25.07-.46.18-.71.11-.21.28-.39.49-.53.21-.11.46-.18.74-.18.42,0,.74.14,1.02.39.28.28.39.6.39,1.02s-.14.78-.39,1.02c-.28.28-.6.42-1.02.42s-.49-.07-.71-.18-.39-.28-.53-.49c-.11-.21-.18-.49-.18-.81v.04h.01ZM300.46,234.09c0,.28.07.49.18.63.14.14.28.21.49.21s.35-.07.49-.21c.14-.14.18-.35.18-.63s-.07-.46-.18-.63c-.14-.14-.28-.21-.49-.21s-.35.07-.49.21c-.14.14-.18.35-.18.63Z" fill="#1d1d1b"/>
      <path d="M305.61,235.47h-.74v-1.41c0-.28,0-.49-.04-.56,0-.07-.07-.14-.14-.21-.07-.04-.14-.07-.25-.07s-.25,0-.35.11-.18.18-.21.28-.07.32-.07.63v1.23h-.74v-2.75h.67v.39c.25-.32.53-.46.92-.46s.32,0,.42.07c.14.07.25.14.32.21.07.11.11.18.14.32,0,.11.04.28.04.49v1.69l.04.04h-.01Z" fill="#1d1d1b"/>
      <path d="M306.35,235.47v-3.77h.74v3.77h-.74Z" fill="#1d1d1b"/>
      <path d="M307.48,232.71h.78l.67,1.94.63-1.94h.74l-.95,2.65-.18.49c-.07.18-.14.28-.18.35l-.21.21c-.07.04-.18.11-.28.11s-.25.04-.39.04-.28,0-.42-.04l-.07-.56h.32c.18,0,.28-.04.39-.14.07-.11.14-.21.18-.39l-1.06-2.75.04.04h-.01Z" fill="#1d1d1b"/>
      <path d="M301.83,244.99v-5.26h-1.87v-1.06h5.01v1.06h-1.87v5.26h-1.27Z" fill="#1d1d1b"/>
      <path d="M308.64,244.99h-1.2v-4.55c-.46.42-.95.71-1.55.92v-1.09c.32-.11.67-.28,1.02-.6.39-.28.63-.63.78-1.02h.99v6.35h-.04,0Z" fill="#1d1d1b"/>
    </g>
  </g>
  <g id="d">
    <path d="M319.29.71v248.59H.71V.71h318.59M320,0H0v250h320V0h0Z" fill="#1d1d1b"/>
  </g>
  <g id="e">
    <line y1="49.99" x2="320" y2="49.99" fill="none" stroke="#1d1d1b" stroke-miterlimit="10"/>
    <line y1="100.01" x2="320" y2="100.01" fill="none" stroke="#1d1d1b" stroke-miterlimit="10"/>
    <line y1="149.99" x2="320" y2="149.99" fill="none" stroke="#1d1d1b" stroke-miterlimit="10"/>
    <line y1="199.98" x2="320" y2="199.98" fill="none" stroke="#1d1d1b" stroke-miterlimit="10"/>
    <line x1="49.99" y1="250" x2="49.99" fill="none" stroke="#1d1d1b" stroke-miterlimit="10"/>
    <line x1="100.01" y1="250" x2="100.01" fill="none" stroke="#1d1d1b" stroke-miterlimit="10"/>
    <line x1="150" y1="250" x2="150" fill="none" stroke="#1d1d1b" stroke-miterlimit="10"/>
    <line x1="199.99" y1="250" x2="199.99" fill="none" stroke="#1d1d1b" stroke-miterlimit="10"/>
    <line x1="250.01" y1="250" x2="250.01" fill="none" stroke="#1d1d1b" stroke-miterlimit="10"/>
    <line x1="300" y1="250" x2="300" fill="none" stroke="#1d1d1b" stroke-miterlimit="10"/>
  </g>
  <g id="f">
    <line x1="9.98" y1="250" x2="9.98" fill="none" stroke="#1d1d1b" stroke-miterlimit="10" stroke-width=".4"/>
    <line x1="20" y1="250" x2="20" fill="none" stroke="#1d1d1b" stroke-miterlimit="10" stroke-width=".4"/>
    <line x1="29.99" y1="250" x2="29.99" fill="none" stroke="#1d1d1b" stroke-miterlimit="10" stroke-width=".4"/>
    <line x1="40" y1="250" x2="40" fill="none" stroke="#1d1d1b" stroke-miterlimit="10" stroke-width=".4"/>
    <line x1="60.01" y1="250" x2="60.01" fill="none" stroke="#1d1d1b" stroke-miterlimit="10" stroke-width=".4"/>
    <line x1="69.99" y1="250" x2="69.99" fill="none" stroke="#1d1d1b" stroke-miterlimit="10" stroke-width=".4"/>
    <line x1="80.01" y1="250" x2="80.01" fill="none" stroke="#1d1d1b" stroke-miterlimit="10" stroke-width=".4"/>
    <line x1="89.99" y1="250" x2="89.99" fill="none" stroke="#1d1d1b" stroke-miterlimit="10" stroke-width=".4"/>
    <line x1="109.99" y1="250" x2="109.99" fill="none" stroke="#1d1d1b" stroke-miterlimit="10" stroke-width=".4"/>
    <line x1="120.01" y1="250" x2="120.01" fill="none" stroke="#1d1d1b" stroke-miterlimit="10" stroke-width=".4"/>
    <line x1="130" y1="250" x2="130" fill="none" stroke="#1d1d1b" stroke-miterlimit="10" stroke-width=".4"/>
    <line x1="140.02" y1="250" x2="140.02" fill="none" stroke="#1d1d1b" stroke-miterlimit="10" stroke-width=".4"/>
    <line x1="159.98" y1="250" x2="159.98" fill="none" stroke="#1d1d1b" stroke-miterlimit="10" stroke-width=".4"/>
    <line x1="170" y1="250" x2="170" fill="none" stroke="#1d1d1b" stroke-miterlimit="10" stroke-width=".4"/>
    <line x1="179.98" y1="250" x2="179.98" fill="none" stroke="#1d1d1b" stroke-miterlimit="10" stroke-width=".4"/>
    <line x1="190" y1="250" x2="190" fill="none" stroke="#1d1d1b" stroke-miterlimit="10" stroke-width=".4"/>
    <line x1="210.01" y1="250" x2="210.01" fill="none" stroke="#1d1d1b" stroke-miterlimit="10" stroke-width=".4"/>
    <line x1="219.99" y1="250" x2="219.99" fill="none" stroke="#1d1d1b" stroke-miterlimit="10" stroke-width=".4"/>
    <line x1="230.01" y1="250" x2="230.01" fill="none" stroke="#1d1d1b" stroke-miterlimit="10" stroke-width=".4"/>
    <line x1="239.99" y1="250" x2="239.99" fill="none" stroke="#1d1d1b" stroke-miterlimit="10" stroke-width=".4"/>
    <line x1="259.99" y1="250" x2="259.99" fill="none" stroke="#1d1d1b" stroke-miterlimit="10" stroke-width=".4"/>
    <line x1="270.01" y1="250" x2="270.01" fill="none" stroke="#1d1d1b" stroke-miterlimit="10" stroke-width=".4"/>
    <line x1="280" y1="250" x2="280" fill="none" stroke="#1d1d1b" stroke-miterlimit="10" stroke-width=".4"/>
    <line x1="289.98" y1="250" x2="289.98" fill="none" stroke="#1d1d1b" stroke-miterlimit="10" stroke-width=".4"/>
    <line x1="309.98" y1="250" x2="309.98" fill="none" stroke="#1d1d1b" stroke-miterlimit="10" stroke-width=".4"/>
    <line y1="9.98" x2="320" y2="9.98" fill="none" stroke="#1d1d1b" stroke-miterlimit="10" stroke-width=".4"/>
    <line y1="20" x2="320" y2="20" fill="none" stroke="#1d1d1b" stroke-miterlimit="10" stroke-width=".4"/>
    <line y1="29.98" x2="320" y2="29.98" fill="none" stroke="#1d1d1b" stroke-miterlimit="10" stroke-width=".4"/>
    <line y1="40" x2="320" y2="40" fill="none" stroke="#1d1d1b" stroke-miterlimit="10" stroke-width=".4"/>
    <line y1="60" x2="320" y2="60" fill="none" stroke="#1d1d1b" stroke-miterlimit="10" stroke-width=".4"/>
    <line y1="69.99" x2="320" y2="69.99" fill="none" stroke="#1d1d1b" stroke-miterlimit="10" stroke-width=".4"/>
    <line y1="80.01" x2="320" y2="80.01" fill="none" stroke="#1d1d1b" stroke-miterlimit="10" stroke-width=".4"/>
    <line y1="89.99" x2="320" y2="89.99" fill="none" stroke="#1d1d1b" stroke-miterlimit="10" stroke-width=".4"/>
    <line y1="109.99" x2="320" y2="109.99" fill="none" stroke="#1d1d1b" stroke-miterlimit="10" stroke-width=".4"/>
    <line y1="120.01" x2="320" y2="120.01" fill="none" stroke="#1d1d1b" stroke-miterlimit="10" stroke-width=".4"/>
    <line y1="129.99" x2="320" y2="129.99" fill="none" stroke="#1d1d1b" stroke-miterlimit="10" stroke-width=".4"/>
    <line y1="140.01" x2="320" y2="140.01" fill="none" stroke="#1d1d1b" stroke-miterlimit="10" stroke-width=".4"/>
    <line y1="159.98" x2="320" y2="159.98" fill="none" stroke="#1d1d1b" stroke-miterlimit="10" stroke-width=".4"/>
    <line y1="169.99" x2="320" y2="169.99" fill="none" stroke="#1d1d1b" stroke-miterlimit="10" stroke-width=".4"/>
    <line y1="179.98" x2="320" y2="179.98" fill="none" stroke="#1d1d1b" stroke-miterlimit="10" stroke-width=".4"/>
    <line y1="190" x2="320" y2="190" fill="none" stroke="#1d1d1b" stroke-miterlimit="10" stroke-width=".4"/>
    <line y1="210" x2="320" y2="210" fill="none" stroke="#1d1d1b" stroke-miterlimit="10" stroke-width=".4"/>
    <line y1="219.98" x2="320" y2="219.98" fill="none" stroke="#1d1d1b" stroke-miterlimit="10" stroke-width=".4"/>
    <line y1="230" x2="320" y2="230" fill="none" stroke="#1d1d1b" stroke-miterlimit="10" stroke-width=".4"/>
    <line y1="239.98" x2="320" y2="239.98" fill="none" stroke="#1d1d1b" stroke-miterlimit="10" stroke-width=".4"/>
  </g>
  <g id="g">
    <g opacity=".6">
      <path d="M273.89,225.17h-4.52v14.96h4.48c4.52,0,6.7-3.14,6.7-7.48s-2.15-7.48-6.67-7.48h0Z" fill="none"/>
      <path d="M273.93,220.72s-43.88-.11-43.92-.11h1.16c4.13,0,6.95,1.76,8.01,4.48v.11h18.56c.67.49,1.09,1.27,1.09,2.26,0,2.01-1.69,3.03-3.77,3.03h-2.5v4.09h2.5c2.29,0,4.2,1.09,4.2,3.14s-1.69,3.1-3.77,3.1-3.63-.85-4.87-2.29l-2.47,3c1.62,2.19,4.27,3.46,7.48,3.46s7.9-2.26,7.9-6.95-1.41-4.48-3.67-5.47c2.01-1.06,3.21-2.89,3.21-5.4s-.11-1.34-.25-1.94h2.19v19.26h8.82c6.7,0,11.15-4.62,11.15-11.78.04-7.27-4.37-11.99-11.08-12.03l.04.04h0ZM273.82,240.16h-4.52v-14.96h4.55c4.52,0,6.7,3.1,6.7,7.48s-2.22,7.48-6.74,7.48h0Z" fill="#037678"/>
      <path d="M232.55,235.01c4.48-.42,7.16-3.07,7.16-6.91s-.18-2.05-.49-2.89v-.11c-1.06-2.72-3.88-4.48-8.01-4.48h-24.48c-7.09.07-12.1,5.75-12.1,12.73s5.04,11.64,12.21,11.64,7.76-1.41,9.81-4.44l-3.77-2.75c-1.41,2.05-3.49,3.17-6.07,3.17-4.09,0-7.58-2.89-7.62-7.58,0-4.48,3.17-8.29,7.51-8.29h0l24.38.07c2.47,0,3.85.99,3.85,2.96s-1.34,2.93-3.88,2.89h-9.81v13.44h4.69v-9.38h1.41l6.81,9.38h5.64l-7.2-9.42-.04-.04h0Z" fill="#fff" stroke="#1e1e1c" stroke-miterlimit="10"/>
    </g>
  </g>
</svg>