<?xml version="1.0" encoding="UTF-8"?>
<svg id="Ebene_1" data-name="Ebene 1" xmlns="http://www.w3.org/2000/svg" viewBox="0 0 590 490">
  <g id="a">
    <rect width="590" height="490" fill="#c6c6c6"/>
  </g>
  <g id="b">
    <path d="M589.31.69v488.62H.69V.69h588.61M590,0H0v490h590V0h0Z" fill="#1d1d1b"/>
  </g>
  <g id="c">
    <line y1="48.99" x2="590" y2="48.99" fill="none" stroke="#1d1d1b" stroke-miterlimit="10" stroke-width="1"/>
    <line y1="98.01" x2="590" y2="98.01" fill="none" stroke="#1d1d1b" stroke-miterlimit="10" stroke-width="1"/>
    <line y1="147" x2="590" y2="147" fill="none" stroke="#1d1d1b" stroke-miterlimit="10" stroke-width="1"/>
    <line y1="195.99" x2="590" y2="195.99" fill="none" stroke="#1d1d1b" stroke-miterlimit="10" stroke-width="1"/>
    <line x1="49.16" y1="490" x2="49.16" fill="none" stroke="#1d1d1b" stroke-miterlimit="10" stroke-width="1"/>
    <line x1="98.34" y1="490" x2="98.34" fill="none" stroke="#1d1d1b" stroke-miterlimit="10" stroke-width="1"/>
    <line x1="147.5" y1="490" x2="147.5" fill="none" stroke="#1d1d1b" stroke-miterlimit="10" stroke-width="1"/>
    <line x1="196.66" y1="490" x2="196.66" fill="none" stroke="#1d1d1b" stroke-miterlimit="10" stroke-width="1"/>
    <line x1="245.84" y1="490" x2="245.84" fill="none" stroke="#1d1d1b" stroke-miterlimit="10" stroke-width="1"/>
    <line x1="295" y1="490" x2="295" fill="none" stroke="#1d1d1b" stroke-miterlimit="10" stroke-width="1"/>
    <line y1="245.02" x2="590" y2="245.02" fill="none" stroke="#1d1d1b" stroke-miterlimit="10" stroke-width="1"/>
    <line y1="294.01" x2="590" y2="294.01" fill="none" stroke="#1d1d1b" stroke-miterlimit="10" stroke-width="1"/>
    <line y1="392.02" x2="590" y2="392.02" fill="none" stroke="#1d1d1b" stroke-miterlimit="10" stroke-width="1"/>
    <line y1="343" x2="590" y2="343" fill="none" stroke="#1d1d1b" stroke-miterlimit="10" stroke-width="1"/>
    <line y1="441.01" x2="590" y2="441.01" fill="none" stroke="#1d1d1b" stroke-miterlimit="10" stroke-width="1"/>
    <line x1="295" y1="490" x2="295" fill="none" stroke="#1d1d1b" stroke-miterlimit="10" stroke-width="1"/>
    <line x1="344.16" y1="490" x2="344.16" fill="none" stroke="#1d1d1b" stroke-miterlimit="10" stroke-width="1"/>
    <line x1="393.34" y1="490" x2="393.34" fill="none" stroke="#1d1d1b" stroke-miterlimit="10" stroke-width="1"/>
    <line x1="442.5" y1="490" x2="442.5" fill="none" stroke="#1d1d1b" stroke-miterlimit="10" stroke-width="1"/>
    <line x1="491.66" y1="490" x2="491.66" fill="none" stroke="#1d1d1b" stroke-miterlimit="10" stroke-width="1"/>
    <line x1="540.84" y1="490" x2="540.84" fill="none" stroke="#1d1d1b" stroke-miterlimit="10" stroke-width="1"/>
    <line y1="254.8" x2="590" y2="254.8" fill="none" stroke="#1d1d1b" stroke-miterlimit="10" stroke-width=".4"/>
    <line y1="264.62" x2="590" y2="264.62" fill="none" stroke="#1d1d1b" stroke-miterlimit="10" stroke-width=".4"/>
    <line y1="274.4" x2="590" y2="274.4" fill="none" stroke="#1d1d1b" stroke-miterlimit="10" stroke-width=".4"/>
    <line y1="284.19" x2="590" y2="284.19" fill="none" stroke="#1d1d1b" stroke-miterlimit="10" stroke-width=".4"/>
    <line y1="303.79" x2="590" y2="303.79" fill="none" stroke="#1d1d1b" stroke-miterlimit="10" stroke-width=".4"/>
    <line y1="313.61" x2="590" y2="313.61" fill="none" stroke="#1d1d1b" stroke-miterlimit="10" stroke-width=".4"/>
    <line y1="323.39" x2="590" y2="323.39" fill="none" stroke="#1d1d1b" stroke-miterlimit="10" stroke-width=".4"/>
    <line y1="333.21" x2="590" y2="333.21" fill="none" stroke="#1d1d1b" stroke-miterlimit="10" stroke-width=".4"/>
    <line y1="352.82" x2="590" y2="352.82" fill="none" stroke="#1d1d1b" stroke-miterlimit="10" stroke-width=".4"/>
    <line y1="362.6" x2="590" y2="362.6" fill="none" stroke="#1d1d1b" stroke-miterlimit="10" stroke-width=".4"/>
    <line y1="372.42" x2="590" y2="372.42" fill="none" stroke="#1d1d1b" stroke-miterlimit="10" stroke-width=".4"/>
    <line y1="382.2" x2="590" y2="382.2" fill="none" stroke="#1d1d1b" stroke-miterlimit="10" stroke-width=".4"/>
    <line y1="401.8" x2="590" y2="401.8" fill="none" stroke="#1d1d1b" stroke-miterlimit="10" stroke-width=".4"/>
    <line y1="411.62" x2="590" y2="411.62" fill="none" stroke="#1d1d1b" stroke-miterlimit="10" stroke-width=".4"/>
    <line y1="421.41" x2="590" y2="421.41" fill="none" stroke="#1d1d1b" stroke-miterlimit="10" stroke-width=".4"/>
    <line y1="431.19" x2="590" y2="431.19" fill="none" stroke="#1d1d1b" stroke-miterlimit="10" stroke-width=".4"/>
    <line y1="450.79" x2="590" y2="450.79" fill="none" stroke="#1d1d1b" stroke-miterlimit="10" stroke-width=".4"/>
    <line y1="460.61" x2="590" y2="460.61" fill="none" stroke="#1d1d1b" stroke-miterlimit="10" stroke-width=".4"/>
    <line y1="470.4" x2="590" y2="470.4" fill="none" stroke="#1d1d1b" stroke-miterlimit="10" stroke-width=".4"/>
    <line y1="480.22" x2="590" y2="480.22" fill="none" stroke="#1d1d1b" stroke-miterlimit="10" stroke-width=".4"/>
    <line x1="304.82" y1="490" x2="304.82" fill="none" stroke="#1d1d1b" stroke-miterlimit="10" stroke-width=".4"/>
    <line x1="314.67" y1="490" x2="314.67" fill="none" stroke="#1d1d1b" stroke-miterlimit="10" stroke-width=".4"/>
    <line x1="324.49" y1="490" x2="324.49" fill="none" stroke="#1d1d1b" stroke-miterlimit="10" stroke-width=".4"/>
    <line x1="334.34" y1="490" x2="334.34" fill="none" stroke="#1d1d1b" stroke-miterlimit="10" stroke-width=".4"/>
    <line x1="354.01" y1="490" x2="354.01" fill="none" stroke="#1d1d1b" stroke-miterlimit="10" stroke-width=".4"/>
    <line x1="363.82" y1="490" x2="363.82" fill="none" stroke="#1d1d1b" stroke-miterlimit="10" stroke-width=".4"/>
    <line x1="373.68" y1="490" x2="373.68" fill="none" stroke="#1d1d1b" stroke-miterlimit="10" stroke-width=".4"/>
    <line x1="383.49" y1="490" x2="383.49" fill="none" stroke="#1d1d1b" stroke-miterlimit="10" stroke-width=".4"/>
    <line x1="403.16" y1="490" x2="403.16" fill="none" stroke="#1d1d1b" stroke-miterlimit="10" stroke-width=".4"/>
    <line x1="413.01" y1="490" x2="413.01" fill="none" stroke="#1d1d1b" stroke-miterlimit="10" stroke-width=".4"/>
    <line x1="422.83" y1="490" x2="422.83" fill="none" stroke="#1d1d1b" stroke-miterlimit="10" stroke-width=".4"/>
    <line x1="432.65" y1="490" x2="432.65" fill="none" stroke="#1d1d1b" stroke-miterlimit="10" stroke-width=".4"/>
    <line x1="452.32" y1="490" x2="452.32" fill="none" stroke="#1d1d1b" stroke-miterlimit="10" stroke-width=".4"/>
    <line x1="462.17" y1="490" x2="462.17" fill="none" stroke="#1d1d1b" stroke-miterlimit="10" stroke-width=".4"/>
    <line x1="471.99" y1="490" x2="471.99" fill="none" stroke="#1d1d1b" stroke-miterlimit="10" stroke-width=".4"/>
    <line x1="481.84" y1="490" x2="481.84" fill="none" stroke="#1d1d1b" stroke-miterlimit="10" stroke-width=".4"/>
    <line x1="501.51" y1="490" x2="501.51" fill="none" stroke="#1d1d1b" stroke-miterlimit="10" stroke-width=".4"/>
    <line x1="511.32" y1="490" x2="511.32" fill="none" stroke="#1d1d1b" stroke-miterlimit="10" stroke-width=".4"/>
    <line x1="521.18" y1="490" x2="521.18" fill="none" stroke="#1d1d1b" stroke-miterlimit="10" stroke-width=".4"/>
    <line x1="530.99" y1="490" x2="530.99" fill="none" stroke="#1d1d1b" stroke-miterlimit="10" stroke-width=".4"/>
    <line x1="550.66" y1="490" x2="550.66" fill="none" stroke="#1d1d1b" stroke-miterlimit="10" stroke-width=".4"/>
    <line x1="560.48" y1="490" x2="560.48" fill="none" stroke="#1d1d1b" stroke-miterlimit="10" stroke-width=".4"/>
    <line x1="570.33" y1="490" x2="570.33" fill="none" stroke="#1d1d1b" stroke-miterlimit="10" stroke-width=".4"/>
    <line x1="580.15" y1="490" x2="580.15" fill="none" stroke="#1d1d1b" stroke-miterlimit="10" stroke-width=".4"/>
  </g>
  <g id="d">
    <line x1="9.82" y1="490" x2="9.82" fill="none" stroke="#1d1d1b" stroke-miterlimit="10" stroke-width=".4"/>
    <line x1="19.67" y1="490" x2="19.67" fill="none" stroke="#1d1d1b" stroke-miterlimit="10" stroke-width=".4"/>
    <line x1="29.49" y1="490" x2="29.49" fill="none" stroke="#1d1d1b" stroke-miterlimit="10" stroke-width=".4"/>
    <line x1="39.34" y1="490" x2="39.34" fill="none" stroke="#1d1d1b" stroke-miterlimit="10" stroke-width=".4"/>
    <line x1="59.01" y1="490" x2="59.01" fill="none" stroke="#1d1d1b" stroke-miterlimit="10" stroke-width=".4"/>
    <line x1="68.82" y1="490" x2="68.82" fill="none" stroke="#1d1d1b" stroke-miterlimit="10" stroke-width=".4"/>
    <line x1="78.68" y1="490" x2="78.68" fill="none" stroke="#1d1d1b" stroke-miterlimit="10" stroke-width=".4"/>
    <line x1="88.49" y1="490" x2="88.49" fill="none" stroke="#1d1d1b" stroke-miterlimit="10" stroke-width=".4"/>
    <line x1="108.16" y1="490" x2="108.16" fill="none" stroke="#1d1d1b" stroke-miterlimit="10" stroke-width=".4"/>
    <line x1="118.01" y1="490" x2="118.01" fill="none" stroke="#1d1d1b" stroke-miterlimit="10" stroke-width=".4"/>
    <line x1="127.83" y1="490" x2="127.83" fill="none" stroke="#1d1d1b" stroke-miterlimit="10" stroke-width=".4"/>
    <line x1="137.68" y1="490" x2="137.68" fill="none" stroke="#1d1d1b" stroke-miterlimit="10" stroke-width=".4"/>
    <line x1="157.32" y1="490" x2="157.32" fill="none" stroke="#1d1d1b" stroke-miterlimit="10" stroke-width=".4"/>
    <line x1="167.17" y1="490" x2="167.17" fill="none" stroke="#1d1d1b" stroke-miterlimit="10" stroke-width=".4"/>
    <line x1="176.99" y1="490" x2="176.99" fill="none" stroke="#1d1d1b" stroke-miterlimit="10" stroke-width=".4"/>
    <line x1="186.84" y1="490" x2="186.84" fill="none" stroke="#1d1d1b" stroke-miterlimit="10" stroke-width=".4"/>
    <line x1="206.51" y1="490" x2="206.51" fill="none" stroke="#1d1d1b" stroke-miterlimit="10" stroke-width=".4"/>
    <line x1="216.32" y1="490" x2="216.32" fill="none" stroke="#1d1d1b" stroke-miterlimit="10" stroke-width=".4"/>
    <line x1="226.18" y1="490" x2="226.18" fill="none" stroke="#1d1d1b" stroke-miterlimit="10" stroke-width=".4"/>
    <line x1="235.99" y1="490" x2="235.99" fill="none" stroke="#1d1d1b" stroke-miterlimit="10" stroke-width=".4"/>
    <line x1="255.66" y1="490" x2="255.66" fill="none" stroke="#1d1d1b" stroke-miterlimit="10" stroke-width=".4"/>
    <line x1="265.51" y1="490" x2="265.51" fill="none" stroke="#1d1d1b" stroke-miterlimit="10" stroke-width=".4"/>
    <line x1="275.33" y1="490" x2="275.33" fill="none" stroke="#1d1d1b" stroke-miterlimit="10" stroke-width=".4"/>
    <line x1="285.15" y1="490" x2="285.15" fill="none" stroke="#1d1d1b" stroke-miterlimit="10" stroke-width=".4"/>
    <line y1="9.78" x2="590" y2="9.78" fill="none" stroke="#1d1d1b" stroke-miterlimit="10" stroke-width=".4"/>
    <line y1="19.6" x2="590" y2="19.6" fill="none" stroke="#1d1d1b" stroke-miterlimit="10" stroke-width=".4"/>
    <line y1="29.39" x2="590" y2="29.39" fill="none" stroke="#1d1d1b" stroke-miterlimit="10" stroke-width=".4"/>
    <line y1="39.21" x2="590" y2="39.21" fill="none" stroke="#1d1d1b" stroke-miterlimit="10" stroke-width=".4"/>
    <line y1="58.81" x2="590" y2="58.81" fill="none" stroke="#1d1d1b" stroke-miterlimit="10" stroke-width=".4"/>
    <line y1="68.59" x2="590" y2="68.59" fill="none" stroke="#1d1d1b" stroke-miterlimit="10" stroke-width=".4"/>
    <line y1="78.41" x2="590" y2="78.41" fill="none" stroke="#1d1d1b" stroke-miterlimit="10" stroke-width=".4"/>
    <line y1="88.2" x2="590" y2="88.2" fill="none" stroke="#1d1d1b" stroke-miterlimit="10" stroke-width=".4"/>
    <line y1="107.8" x2="590" y2="107.8" fill="none" stroke="#1d1d1b" stroke-miterlimit="10" stroke-width=".4"/>
    <line y1="117.62" x2="590" y2="117.62" fill="none" stroke="#1d1d1b" stroke-miterlimit="10" stroke-width=".4"/>
    <line y1="127.4" x2="590" y2="127.4" fill="none" stroke="#1d1d1b" stroke-miterlimit="10" stroke-width=".4"/>
    <line y1="137.22" x2="590" y2="137.22" fill="none" stroke="#1d1d1b" stroke-miterlimit="10" stroke-width=".4"/>
    <line y1="156.79" x2="590" y2="156.79" fill="none" stroke="#1d1d1b" stroke-miterlimit="10" stroke-width=".4"/>
    <line y1="166.61" x2="590" y2="166.61" fill="none" stroke="#1d1d1b" stroke-miterlimit="10" stroke-width=".4"/>
    <line y1="176.39" x2="590" y2="176.39" fill="none" stroke="#1d1d1b" stroke-miterlimit="10" stroke-width=".4"/>
    <line y1="186.21" x2="590" y2="186.21" fill="none" stroke="#1d1d1b" stroke-miterlimit="10" stroke-width=".4"/>
    <line y1="205.81" x2="590" y2="205.81" fill="none" stroke="#1d1d1b" stroke-miterlimit="10" stroke-width=".4"/>
    <line y1="215.6" x2="590" y2="215.6" fill="none" stroke="#1d1d1b" stroke-miterlimit="10" stroke-width=".4"/>
    <line y1="225.41" x2="590" y2="225.41" fill="none" stroke="#1d1d1b" stroke-miterlimit="10" stroke-width=".4"/>
    <line y1="235.2" x2="590" y2="235.2" fill="none" stroke="#1d1d1b" stroke-miterlimit="10" stroke-width=".4"/>
  </g>
  <g id="e">
    <g opacity=".6">
      <path d="M574.18,465.66h-4.44v14.66h4.41c4.44,0,6.59-3.08,6.59-7.33s-2.12-7.33-6.56-7.33h0Z" fill="none"/>
      <path d="M574.18,461.3s-43.15-.1-43.19-.1h1.14c4.06,0,6.83,1.73,7.87,4.39v.1h18.25c.66.48,1.08,1.24,1.08,2.21,0,1.97-1.67,2.97-3.71,2.97h-2.46v4.01h2.46c2.25,0,4.13,1.07,4.13,3.08s-1.67,3.04-3.71,3.04-3.57-.83-4.79-2.25l-2.43,2.94c1.6,2.14,4.2,3.39,7.35,3.39s7.77-2.21,7.77-6.81-1.39-4.39-3.61-5.36c1.98-1.04,3.16-2.83,3.16-5.29s-.1-1.31-.24-1.9h2.15v18.88h8.67c6.59,0,10.96-4.53,10.96-11.55.03-7.12-4.3-11.75-10.89-11.79l.03.03ZM574.08,480.35h-4.44v-14.66h4.47c4.44,0,6.59,3.04,6.59,7.33s-2.19,7.33-6.63,7.33h0Z" fill="#037678"/>
      <path d="M533.53,475.31c4.41-.41,7.04-3.01,7.04-6.78s-.17-2.01-.49-2.83v-.1c-1.04-2.66-3.82-4.39-7.87-4.39h-24.07c-6.97.07-11.9,5.64-11.9,12.48s4.96,11.41,12,11.41,7.63-1.38,9.64-4.36l-3.71-2.7c-1.39,2.01-3.43,3.11-5.97,3.11-4.02,0-7.46-2.83-7.49-7.43,0-4.39,3.12-8.12,7.39-8.12h0l23.97.07c2.43,0,3.78.97,3.78,2.9s-1.32,2.87-3.82,2.83h-9.64v13.17h4.61v-9.2h1.39l6.7,9.2h5.55l-7.08-9.23-.03-.03Z" fill="#fff" stroke="#1e1e1c" stroke-miterlimit="10" stroke-width="1"/>
    </g>
  </g>
</svg>