ISO-10303-21;
HEADER;
FILE_DESCRIPTION (( 'STEP AP214' ),
    '1' );
FILE_NAME ('Kernbohrung_Zylindermagnet.STEP',
    '2025-07-19T09:52:28',
    ( '' ),
    ( '' ),
    'SwSTEP 2.0',
    'SolidWorks 2022',
    '' );
FILE_SCHEMA (( 'AUTOMOTIVE_DESIGN' ));
ENDSEC;

DATA;
#1 = ADVANCED_FACE ( 'NONE', ( #228 ), #99, .T. ) ;
#2 = PLANE ( 'NONE',  #114 ) ;
#3 = FILL_AREA_STYLE_COLOUR ( '', #213 ) ;
#4 = AXIS2_PLACEMENT_3D ( 'NONE', #170, #95, #181 ) ;
#5 = CARTESIAN_POINT ( 'NONE',  ( -3.450000000000000622, 4.225031457058369317E-16, 3.999999999999998224 ) ) ;
#6 = AXIS2_PLACEMENT_3D ( 'NONE', #107, #10, #61 ) ;
#7 = DIRECTION ( 'NONE',  ( 1.000000000000000000, 0.000000000000000000, 0.000000000000000000 ) ) ;
#8 = EDGE_CURVE ( 'NONE', #210, #78, #80, .T. ) ;
#9 = DIRECTION ( 'NONE',  ( -0.000000000000000000, -0.000000000000000000, -1.000000000000000000 ) ) ;
#10 = DIRECTION ( 'NONE',  ( -0.000000000000000000, -0.000000000000000000, -1.000000000000000000 ) ) ;
#11 = DIRECTION ( 'NONE',  ( 1.000000000000000000, 0.000000000000000000, -0.000000000000000000 ) ) ;
#12 = EDGE_CURVE ( 'NONE', #197, #77, #156, .T. ) ;
#13 = SURFACE_STYLE_USAGE ( .BOTH. , #89 ) ;
#14 = CARTESIAN_POINT ( 'NONE',  ( 0.000000000000000000, 0.000000000000000000, 4.000000000000000000 ) ) ;
#15 = DIRECTION ( 'NONE',  ( 0.000000000000000000, 0.000000000000000000, 1.000000000000000000 ) ) ;
#16 = EDGE_CURVE ( 'NONE', #223, #78, #59, .T. ) ;
#17 = CIRCLE ( 'NONE', #169, 2.950000000000000622 ) ;
#18 = AXIS2_PLACEMENT_3D ( 'NONE', #108, #55, #194 ) ;
#19 = ORIENTED_EDGE ( 'NONE', *, *, #251, .F. ) ;
#20 = FACE_BOUND ( 'NONE', #62, .T. ) ;
#21 = LINE ( 'NONE', #183, #153 ) ;
#22 = ORIENTED_EDGE ( 'NONE', *, *, #236, .F. ) ;
#23 = PRODUCT_DEFINITION_SHAPE ( 'NONE', 'NONE',  #264 ) ;
#24 = ORIENTED_EDGE ( 'NONE', *, *, #28, .T. ) ;
#25 = DIRECTION ( 'NONE',  ( 1.000000000000000000, 0.000000000000000000, 0.000000000000000000 ) ) ;
#26 =( LENGTH_UNIT ( ) NAMED_UNIT ( * ) SI_UNIT ( .MILLI., .METRE. ) );
#27 =( LENGTH_UNIT ( ) NAMED_UNIT ( * ) SI_UNIT ( .MILLI., .METRE. ) );
#28 = EDGE_CURVE ( 'NONE', #78, #210, #52, .T. ) ;
#29 = VERTEX_POINT ( 'NONE', #101 ) ;
#30 =( GEOMETRIC_REPRESENTATION_CONTEXT ( 3 ) GLOBAL_UNCERTAINTY_ASSIGNED_CONTEXT ( ( #98 ) ) GLOBAL_UNIT_ASSIGNED_CONTEXT ( ( #26, #65, #86 ) ) REPRESENTATION_CONTEXT ( 'NONE', 'WORKASPACE' ) );
#31 = AXIS2_PLACEMENT_3D ( 'NONE', #14, #134, #177 ) ;
#32 = DIRECTION ( 'NONE',  ( -0.000000000000000000, -0.000000000000000000, -1.000000000000000000 ) ) ;
#33 = EDGE_CURVE ( 'NONE', #29, #223, #66, .T. ) ;
#34 = ORIENTED_EDGE ( 'NONE', *, *, #136, .T. ) ;
#35 = COLOUR_RGB ( '',0.7921568627450980005, 0.8196078431372548767, 0.9333333333333333481 ) ;
#36 = ORIENTED_EDGE ( 'NONE', *, *, #136, .F. ) ;
#37 = ORIENTED_EDGE ( 'NONE', *, *, #96, .T. ) ;
#38 = CARTESIAN_POINT ( 'NONE',  ( 0.000000000000000000, 0.000000000000000000, 7.000000000000000000 ) ) ;
#39 = CARTESIAN_POINT ( 'NONE',  ( 8.000000000000000000, 9.797174393178825657E-16, 7.000000000000000000 ) ) ;
#40 = ADVANCED_FACE ( 'NONE', ( #20, #188 ), #2, .F. ) ;
#41 = CLOSED_SHELL ( 'NONE', ( #47, #220, #234, #113, #195, #1, #200, #119, #40 ) ) ;
#42 = DIRECTION ( 'NONE',  ( 0.000000000000000000, 0.000000000000000000, 1.000000000000000000 ) ) ;
#43 = CARTESIAN_POINT ( 'NONE',  ( -2.950000000000000622, 0.000000000000000000, 4.000000000000000000 ) ) ;
#44 = DIRECTION ( 'NONE',  ( 0.7071067811865493491, 0.000000000000000000, 0.7071067811865456854 ) ) ;
#45 = APPLICATION_CONTEXT ( 'automotive_design' ) ;
#46 = ORIENTED_EDGE ( 'NONE', *, *, #16, .T. ) ;
#47 = ADVANCED_FACE ( 'NONE', ( #185 ), #224, .T. ) ;
#48 = CARTESIAN_POINT ( 'NONE',  ( 3.450000000000002398, 0.000000000000000000, 4.000000000000000000 ) ) ;
#49 = DIRECTION ( 'NONE',  ( 1.000000000000000000, 0.000000000000000000, 0.000000000000000000 ) ) ;
#50 = CIRCLE ( 'NONE', #232, 8.000000000000000000 ) ;
#51 = PLANE ( 'NONE',  #57 ) ;
#52 = CIRCLE ( 'NONE', #179, 2.950000000000000622 ) ;
#53 = CIRCLE ( 'NONE', #31, 3.450000000000000622 ) ;
#54 = DIRECTION ( 'NONE',  ( 0.000000000000000000, 0.000000000000000000, 1.000000000000000000 ) ) ;
#55 = DIRECTION ( 'NONE',  ( 0.000000000000000000, 0.000000000000000000, 1.000000000000000000 ) ) ;
#56 = ORIENTED_EDGE ( 'NONE', *, *, #155, .T. ) ;
#57 = AXIS2_PLACEMENT_3D ( 'NONE', #192, #256, #74 ) ;
#58 = PRESENTATION_STYLE_ASSIGNMENT (( #121 ) ) ;
#59 = LINE ( 'NONE', #43, #146 ) ;
#60 = DIRECTION ( 'NONE',  ( 1.000000000000000000, 0.000000000000000000, 0.000000000000000000 ) ) ;
#61 = DIRECTION ( 'NONE',  ( -1.000000000000000000, 0.000000000000000000, 0.000000000000000000 ) ) ;
#62 = EDGE_LOOP ( 'NONE', ( #178, #163 ) ) ;
#63 = PRODUCT ( 'Kernbohrung_Zylindermagnet', 'Kernbohrung_Zylindermagnet', '', ( #240 ) ) ;
#64 = EDGE_LOOP ( 'NONE', ( #127, #139, #180, #82 ) ) ;
#65 =( NAMED_UNIT ( * ) PLANE_ANGLE_UNIT ( ) SI_UNIT ( $, .RADIAN. ) );
#66 = CIRCLE ( 'NONE', #217, 2.950000000000000622 ) ;
#67 = CONICAL_SURFACE ( 'NONE', #235, 3.450000000000000622, 0.7853981633974509435 ) ;
#68 = ORIENTED_EDGE ( 'NONE', *, *, #8, .F. ) ;
#69 = CARTESIAN_POINT ( 'NONE',  ( 8.000000000000000000, 9.797174393178825657E-16, 4.000000000000000000 ) ) ;
#70 = CARTESIAN_POINT ( 'NONE',  ( 0.000000000000000000, 0.000000000000000000, 7.000000000000000000 ) ) ;
#71 =( GEOMETRIC_REPRESENTATION_CONTEXT ( 3 ) GLOBAL_UNCERTAINTY_ASSIGNED_CONTEXT ( ( #168 ) ) GLOBAL_UNIT_ASSIGNED_CONTEXT ( ( #27, #215, #112 ) ) REPRESENTATION_CONTEXT ( 'NONE', 'WORKASPACE' ) );
#72 = DIRECTION ( 'NONE',  ( -0.000000000000000000, -0.000000000000000000, -1.000000000000000000 ) ) ;
#73 = DIRECTION ( 'NONE',  ( 1.000000000000000000, 0.000000000000000000, 0.000000000000000000 ) ) ;
#74 = DIRECTION ( 'NONE',  ( 1.000000000000000000, 0.000000000000000000, -0.000000000000000000 ) ) ;
#75 = ORIENTED_EDGE ( 'NONE', *, *, #144, .F. ) ;
#76 = EDGE_LOOP ( 'NONE', ( #203, #222, #148, #19 ) ) ;
#77 = VERTEX_POINT ( 'NONE', #69 ) ;
#78 = VERTEX_POINT ( 'NONE', #97 ) ;
#79 = ORIENTED_EDGE ( 'NONE', *, *, #216, .F. ) ;
#80 = CIRCLE ( 'NONE', #4, 2.950000000000000622 ) ;
#81 = CARTESIAN_POINT ( 'NONE',  ( 0.000000000000000000, 0.000000000000000000, -4.000000000000000000 ) ) ;
#82 = ORIENTED_EDGE ( 'NONE', *, *, #211, .F. ) ;
#83 = CARTESIAN_POINT ( 'NONE',  ( 0.000000000000000000, 0.000000000000000000, 3.999999999999998224 ) ) ;
#84 = AXIS2_PLACEMENT_3D ( 'NONE', #198, #268, #60 ) ;
#85 = DIRECTION ( 'NONE',  ( -1.000000000000000000, 0.000000000000000000, 0.000000000000000000 ) ) ;
#86 =( NAMED_UNIT ( * ) SI_UNIT ( $, .STERADIAN. ) SOLID_ANGLE_UNIT ( ) );
#87 = VECTOR ( 'NONE', #72, 1000.000000000000000 ) ;
#88 = EDGE_CURVE ( 'NONE', #223, #267, #182, .T. ) ;
#89 = SURFACE_SIDE_STYLE ('',( #193 ) ) ;
#90 = DIRECTION ( 'NONE',  ( 1.000000000000000000, 0.000000000000000000, 0.000000000000000000 ) ) ;
#91 = DIRECTION ( 'NONE',  ( 1.000000000000000000, 0.000000000000000000, 0.000000000000000000 ) ) ;
#92 = EDGE_LOOP ( 'NONE', ( #262, #36, #252, #269 ) ) ;
#93 = ORIENTED_EDGE ( 'NONE', *, *, #227, .F. ) ;
#94 = CIRCLE ( 'NONE', #218, 3.450000000000000622 ) ;
#95 = DIRECTION ( 'NONE',  ( 0.000000000000000000, 0.000000000000000000, 1.000000000000000000 ) ) ;
#96 = EDGE_CURVE ( 'NONE', #29, #210, #165, .T. ) ;
#97 = CARTESIAN_POINT ( 'NONE',  ( -2.950000000000000622, 0.000000000000000000, -4.000000000000000000 ) ) ;
#98 = UNCERTAINTY_MEASURE_WITH_UNIT (LENGTH_MEASURE( 1.000000000000000082E-05 ), #26, 'distance_accuracy_value', 'NONE');
#99 = CONICAL_SURFACE ( 'NONE', #109, 3.450000000000000622, 0.7853981633974509435 ) ;
#100 = VECTOR ( 'NONE', #32, 1000.000000000000000 ) ;
#101 = CARTESIAN_POINT ( 'NONE',  ( 2.950000000000000622, 3.612708057484692590E-16, 3.500000000000000000 ) ) ;
#102 = CARTESIAN_POINT ( 'NONE',  ( 2.950000000000000622, 3.612708057484692590E-16, -4.000000000000000000 ) ) ;
#103 = DIRECTION ( 'NONE',  ( -0.000000000000000000, -0.000000000000000000, -1.000000000000000000 ) ) ;
#104 = PRODUCT_RELATED_PRODUCT_CATEGORY ( 'part', '', ( #63 ) ) ;
#105 = ORIENTED_EDGE ( 'NONE', *, *, #236, .T. ) ;
#106 = CARTESIAN_POINT ( 'NONE',  ( -3.450000000000002398, 4.225031457058371289E-16, 4.000000000000000000 ) ) ;
#107 = CARTESIAN_POINT ( 'NONE',  ( 0.000000000000000000, 0.000000000000000000, 4.000000000000000000 ) ) ;
#108 = CARTESIAN_POINT ( 'NONE',  ( 0.000000000000000000, 0.000000000000000000, -4.000000000000000000 ) ) ;
#109 = AXIS2_PLACEMENT_3D ( 'NONE', #83, #212, #246 ) ;
#110 = AXIS2_PLACEMENT_3D ( 'NONE', #38, #248, #229 ) ;
#111 = APPLICATION_CONTEXT ( 'automotive_design' ) ;
#112 =( NAMED_UNIT ( * ) SI_UNIT ( $, .STERADIAN. ) SOLID_ANGLE_UNIT ( ) );
#113 = ADVANCED_FACE ( 'NONE', ( #143 ), #167, .T. ) ;
#114 = AXIS2_PLACEMENT_3D ( 'NONE', #255, #209, #11 ) ;
#115 =( LENGTH_UNIT ( ) NAMED_UNIT ( * ) SI_UNIT ( .MILLI., .METRE. ) );
#116 = EDGE_LOOP ( 'NONE', ( #34, #105 ) ) ;
#117 = VERTEX_POINT ( 'NONE', #39 ) ;
#118 = SURFACE_STYLE_FILL_AREA ( #140 ) ;
#119 = ADVANCED_FACE ( 'NONE', ( #132 ), #51, .T. ) ;
#120 = CARTESIAN_POINT ( 'NONE',  ( 0.000000000000000000, 0.000000000000000000, 4.000000000000000000 ) ) ;
#121 = SURFACE_STYLE_USAGE ( .BOTH. , #270 ) ;
#122 = DIRECTION ( 'NONE',  ( -0.7071067811865493491, 8.659560562354955045E-17, 0.7071067811865456854 ) ) ;
#123 = PRODUCT_DEFINITION_CONTEXT ( 'detailed design', #111, 'design' ) ;
#124 = DIRECTION ( 'NONE',  ( 0.000000000000000000, 0.000000000000000000, 1.000000000000000000 ) ) ;
#125 = CARTESIAN_POINT ( 'NONE',  ( 0.000000000000000000, 0.000000000000000000, 3.500000000000000000 ) ) ;
#126 = UNCERTAINTY_MEASURE_WITH_UNIT (LENGTH_MEASURE( 1.000000000000000082E-05 ), #115, 'distance_accuracy_value', 'NONE');
#127 = ORIENTED_EDGE ( 'NONE', *, *, #88, .F. ) ;
#128 = AXIS2_PLACEMENT_3D ( 'NONE', #199, #243, #261 ) ;
#129 = FILL_AREA_STYLE ('',( #231 ) ) ;
#130 = FACE_OUTER_BOUND ( 'NONE', #245, .T. ) ;
#131 = PRESENTATION_STYLE_ASSIGNMENT (( #13 ) ) ;
#132 = FACE_OUTER_BOUND ( 'NONE', #116, .T. ) ;
#133 = CARTESIAN_POINT ( 'NONE',  ( 8.000000000000000000, 9.797174393178825657E-16, 7.000000000000000000 ) ) ;
#134 = DIRECTION ( 'NONE',  ( 0.000000000000000000, 0.000000000000000000, 1.000000000000000000 ) ) ;
#135 = AXIS2_PLACEMENT_3D ( 'NONE', #247, #103, #85 ) ;
#136 = EDGE_CURVE ( 'NONE', #244, #117, #50, .T. ) ;
#137 = APPLICATION_PROTOCOL_DEFINITION ( 'draft international standard', 'automotive_design', 1998, #111 ) ;
#138 = CARTESIAN_POINT ( 'NONE',  ( -8.000000000000000000, 0.000000000000000000, 7.000000000000000000 ) ) ;
#139 = ORIENTED_EDGE ( 'NONE', *, *, #144, .T. ) ;
#140 = FILL_AREA_STYLE ('',( #3 ) ) ;
#141 = MECHANICAL_DESIGN_GEOMETRIC_PRESENTATION_REPRESENTATION (  '', ( #190 ), #71 ) ;
#142 = DIRECTION ( 'NONE',  ( 1.000000000000000000, 0.000000000000000000, 0.000000000000000000 ) ) ;
#143 = FACE_OUTER_BOUND ( 'NONE', #201, .T. ) ;
#144 = EDGE_CURVE ( 'NONE', #223, #29, #17, .T. ) ;
#145 = DIRECTION ( 'NONE',  ( 0.000000000000000000, 0.000000000000000000, 1.000000000000000000 ) ) ;
#146 = VECTOR ( 'NONE', #226, 1000.000000000000000 ) ;
#147 = CIRCLE ( 'NONE', #110, 8.000000000000000000 ) ;
#148 = ORIENTED_EDGE ( 'NONE', *, *, #189, .F. ) ;
#149 = FACE_OUTER_BOUND ( 'NONE', #175, .T. ) ;
#150 = CARTESIAN_POINT ( 'NONE',  ( 0.000000000000000000, 0.000000000000000000, 4.000000000000000000 ) ) ;
#151 = CARTESIAN_POINT ( 'NONE',  ( 0.000000000000000000, 0.000000000000000000, 3.500000000000000000 ) ) ;
#152 = VECTOR ( 'NONE', #9, 1000.000000000000000 ) ;
#153 = VECTOR ( 'NONE', #44, 1000.000000000000000 ) ;
#154 = MANIFOLD_SOLID_BREP ( 'Aufsatz-Linear austragen3', #41 ) ;
#155 = EDGE_CURVE ( 'NONE', #117, #77, #238, .T. ) ;
#156 = CIRCLE ( 'NONE', #266, 8.000000000000000000 ) ;
#157 = FACE_OUTER_BOUND ( 'NONE', #92, .T. ) ;
#158 = CYLINDRICAL_SURFACE ( 'NONE', #128, 8.000000000000000000 ) ;
#159 = ORIENTED_EDGE ( 'NONE', *, *, #8, .T. ) ;
#160 = AXIS2_PLACEMENT_3D ( 'NONE', #241, #54, #91 ) ;
#161 =( NAMED_UNIT ( * ) PLANE_ANGLE_UNIT ( ) SI_UNIT ( $, .RADIAN. ) );
#162 = ORIENTED_EDGE ( 'NONE', *, *, #16, .F. ) ;
#163 = ORIENTED_EDGE ( 'NONE', *, *, #211, .T. ) ;
#164 =( NAMED_UNIT ( * ) SI_UNIT ( $, .STERADIAN. ) SOLID_ANGLE_UNIT ( ) );
#165 = LINE ( 'NONE', #186, #152 ) ;
#166 = ORIENTED_EDGE ( 'NONE', *, *, #227, .T. ) ;
#167 = CYLINDRICAL_SURFACE ( 'NONE', #171, 2.950000000000000622 ) ;
#168 = UNCERTAINTY_MEASURE_WITH_UNIT (LENGTH_MEASURE( 1.000000000000000082E-05 ), #27, 'distance_accuracy_value', 'NONE');
#169 = AXIS2_PLACEMENT_3D ( 'NONE', #151, #214, #49 ) ;
#170 = CARTESIAN_POINT ( 'NONE',  ( 0.000000000000000000, 0.000000000000000000, -4.000000000000000000 ) ) ;
#171 = AXIS2_PLACEMENT_3D ( 'NONE', #150, #225, #230 ) ;
#172 =( GEOMETRIC_REPRESENTATION_CONTEXT ( 3 ) GLOBAL_UNCERTAINTY_ASSIGNED_CONTEXT ( ( #126 ) ) GLOBAL_UNIT_ASSIGNED_CONTEXT ( ( #115, #161, #164 ) ) REPRESENTATION_CONTEXT ( 'NONE', 'WORKASPACE' ) );
#173 = DIRECTION ( 'NONE',  ( 1.000000000000000000, 0.000000000000000000, 0.000000000000000000 ) ) ;
#174 = PLANE ( 'NONE',  #18 ) ;
#175 = EDGE_LOOP ( 'NONE', ( #265, #37, #159, #162 ) ) ;
#176 = APPLICATION_PROTOCOL_DEFINITION ( 'draft international standard', 'automotive_design', 1998, #45 ) ;
#177 = DIRECTION ( 'NONE',  ( 1.000000000000000000, 0.000000000000000000, 0.000000000000000000 ) ) ;
#178 = ORIENTED_EDGE ( 'NONE', *, *, #189, .T. ) ;
#179 = AXIS2_PLACEMENT_3D ( 'NONE', #81, #42, #7 ) ;
#180 = ORIENTED_EDGE ( 'NONE', *, *, #251, .T. ) ;
#181 = DIRECTION ( 'NONE',  ( 1.000000000000000000, 0.000000000000000000, 0.000000000000000000 ) ) ;
#182 = LINE ( 'NONE', #5, #253 ) ;
#183 = CARTESIAN_POINT ( 'NONE',  ( 3.450000000000000622, 0.000000000000000000, 3.999999999999998224 ) ) ;
#184 = PRODUCT_DEFINITION_FORMATION_WITH_SPECIFIED_SOURCE ( 'ANY', '', #63, .NOT_KNOWN. ) ;
#185 = FACE_OUTER_BOUND ( 'NONE', #250, .T. ) ;
#186 = CARTESIAN_POINT ( 'NONE',  ( 2.950000000000000622, 3.612708057484692590E-16, 4.000000000000000000 ) ) ;
#187 = CYLINDRICAL_SURFACE ( 'NONE', #6, 2.950000000000000622 ) ;
#188 = FACE_OUTER_BOUND ( 'NONE', #260, .T. ) ;
#189 = EDGE_CURVE ( 'NONE', #206, #267, #94, .T. ) ;
#190 = STYLED_ITEM ( 'NONE', ( #131 ), #154 ) ;
#191 = CIRCLE ( 'NONE', #160, 8.000000000000000000 ) ;
#192 = CARTESIAN_POINT ( 'NONE',  ( 0.000000000000000000, 0.000000000000000000, 7.000000000000000000 ) ) ;
#193 = SURFACE_STYLE_FILL_AREA ( #129 ) ;
#194 = DIRECTION ( 'NONE',  ( 1.000000000000000000, 0.000000000000000000, -0.000000000000000000 ) ) ;
#195 = ADVANCED_FACE ( 'NONE', ( #130 ), #174, .F. ) ;
#196 = MECHANICAL_DESIGN_GEOMETRIC_PRESENTATION_REPRESENTATION (  '', ( #254 ), #172 ) ;
#197 = VERTEX_POINT ( 'NONE', #219 ) ;
#198 = CARTESIAN_POINT ( 'NONE',  ( 0.000000000000000000, 0.000000000000000000, 0.000000000000000000 ) ) ;
#199 = CARTESIAN_POINT ( 'NONE',  ( 0.000000000000000000, 0.000000000000000000, 7.000000000000000000 ) ) ;
#200 = ADVANCED_FACE ( 'NONE', ( #157 ), #158, .T. ) ;
#201 = EDGE_LOOP ( 'NONE', ( #208, #75, #46, #24 ) ) ;
#202 = CARTESIAN_POINT ( 'NONE',  ( 0.000000000000000000, 0.000000000000000000, 3.999999999999998224 ) ) ;
#203 = ORIENTED_EDGE ( 'NONE', *, *, #33, .T. ) ;
#204 = PRESENTATION_LAYER_ASSIGNMENT (  '', '', ( #254 ) ) ;
#205 = ORIENTED_EDGE ( 'NONE', *, *, #12, .F. ) ;
#206 = VERTEX_POINT ( 'NONE', #48 ) ;
#207 = CARTESIAN_POINT ( 'NONE',  ( -8.000000000000000000, 0.000000000000000000, 7.000000000000000000 ) ) ;
#208 = ORIENTED_EDGE ( 'NONE', *, *, #96, .F. ) ;
#209 = DIRECTION ( 'NONE',  ( 0.000000000000000000, 0.000000000000000000, 1.000000000000000000 ) ) ;
#210 = VERTEX_POINT ( 'NONE', #102 ) ;
#211 = EDGE_CURVE ( 'NONE', #267, #206, #53, .T. ) ;
#212 = DIRECTION ( 'NONE',  ( -0.000000000000000000, -0.000000000000000000, 1.000000000000000000 ) ) ;
#213 = COLOUR_RGB ( '',0.7921568627450980005, 0.8196078431372548767, 0.9333333333333333481 ) ;
#214 = DIRECTION ( 'NONE',  ( 0.000000000000000000, 0.000000000000000000, 1.000000000000000000 ) ) ;
#215 =( NAMED_UNIT ( * ) PLANE_ANGLE_UNIT ( ) SI_UNIT ( $, .RADIAN. ) );
#216 = EDGE_CURVE ( 'NONE', #244, #197, #242, .T. ) ;
#217 = AXIS2_PLACEMENT_3D ( 'NONE', #125, #124, #142 ) ;
#218 = AXIS2_PLACEMENT_3D ( 'NONE', #233, #257, #90 ) ;
#219 = CARTESIAN_POINT ( 'NONE',  ( -8.000000000000000000, 0.000000000000000000, 4.000000000000000000 ) ) ;
#220 = ADVANCED_FACE ( 'NONE', ( #258 ), #67, .T. ) ;
#221 = SHAPE_DEFINITION_REPRESENTATION ( #23, #249 ) ;
#222 = ORIENTED_EDGE ( 'NONE', *, *, #88, .T. ) ;
#223 = VERTEX_POINT ( 'NONE', #237 ) ;
#224 = CYLINDRICAL_SURFACE ( 'NONE', #135, 8.000000000000000000 ) ;
#225 = DIRECTION ( 'NONE',  ( -0.000000000000000000, -0.000000000000000000, -1.000000000000000000 ) ) ;
#226 = DIRECTION ( 'NONE',  ( -0.000000000000000000, -0.000000000000000000, -1.000000000000000000 ) ) ;
#227 = EDGE_CURVE ( 'NONE', #77, #197, #191, .T. ) ;
#228 = FACE_OUTER_BOUND ( 'NONE', #64, .T. ) ;
#229 = DIRECTION ( 'NONE',  ( 1.000000000000000000, 0.000000000000000000, 0.000000000000000000 ) ) ;
#230 = DIRECTION ( 'NONE',  ( -1.000000000000000000, 0.000000000000000000, 0.000000000000000000 ) ) ;
#231 = FILL_AREA_STYLE_COLOUR ( '', #35 ) ;
#232 = AXIS2_PLACEMENT_3D ( 'NONE', #70, #15, #173 ) ;
#233 = CARTESIAN_POINT ( 'NONE',  ( 0.000000000000000000, 0.000000000000000000, 4.000000000000000000 ) ) ;
#234 = ADVANCED_FACE ( 'NONE', ( #149 ), #187, .T. ) ;
#235 = AXIS2_PLACEMENT_3D ( 'NONE', #202, #263, #73 ) ;
#236 = EDGE_CURVE ( 'NONE', #117, #244, #147, .T. ) ;
#237 = CARTESIAN_POINT ( 'NONE',  ( -2.950000000000000622, 0.000000000000000000, 3.500000000000000000 ) ) ;
#238 = LINE ( 'NONE', #133, #87 ) ;
#239 = ORIENTED_EDGE ( 'NONE', *, *, #28, .F. ) ;
#240 = PRODUCT_CONTEXT ( 'NONE', #45, 'mechanical' ) ;
#241 = CARTESIAN_POINT ( 'NONE',  ( 0.000000000000000000, 0.000000000000000000, 4.000000000000000000 ) ) ;
#242 = LINE ( 'NONE', #138, #100 ) ;
#243 = DIRECTION ( 'NONE',  ( -0.000000000000000000, -0.000000000000000000, -1.000000000000000000 ) ) ;
#244 = VERTEX_POINT ( 'NONE', #207 ) ;
#245 = EDGE_LOOP ( 'NONE', ( #239, #68 ) ) ;
#246 = DIRECTION ( 'NONE',  ( 1.000000000000000000, 0.000000000000000000, 0.000000000000000000 ) ) ;
#247 = CARTESIAN_POINT ( 'NONE',  ( 0.000000000000000000, 0.000000000000000000, 7.000000000000000000 ) ) ;
#248 = DIRECTION ( 'NONE',  ( 0.000000000000000000, 0.000000000000000000, 1.000000000000000000 ) ) ;
#249 = ADVANCED_BREP_SHAPE_REPRESENTATION ( 'Kernbohrung_Zylindermagnet', ( #154, #84 ), #30 ) ;
#250 = EDGE_LOOP ( 'NONE', ( #22, #56, #166, #79 ) ) ;
#251 = EDGE_CURVE ( 'NONE', #29, #206, #21, .T. ) ;
#252 = ORIENTED_EDGE ( 'NONE', *, *, #216, .T. ) ;
#253 = VECTOR ( 'NONE', #122, 1000.000000000000000 ) ;
#254 = STYLED_ITEM ( 'NONE', ( #58 ), #249 ) ;
#255 = CARTESIAN_POINT ( 'NONE',  ( 0.000000000000000000, 0.000000000000000000, 4.000000000000000000 ) ) ;
#256 = DIRECTION ( 'NONE',  ( 0.000000000000000000, 0.000000000000000000, 1.000000000000000000 ) ) ;
#257 = DIRECTION ( 'NONE',  ( 0.000000000000000000, 0.000000000000000000, 1.000000000000000000 ) ) ;
#258 = FACE_OUTER_BOUND ( 'NONE', #76, .T. ) ;
#259 = PRESENTATION_LAYER_ASSIGNMENT (  '', '', ( #190 ) ) ;
#260 = EDGE_LOOP ( 'NONE', ( #205, #93 ) ) ;
#261 = DIRECTION ( 'NONE',  ( -1.000000000000000000, 0.000000000000000000, 0.000000000000000000 ) ) ;
#262 = ORIENTED_EDGE ( 'NONE', *, *, #155, .F. ) ;
#263 = DIRECTION ( 'NONE',  ( -0.000000000000000000, -0.000000000000000000, 1.000000000000000000 ) ) ;
#264 = PRODUCT_DEFINITION ( 'UNKNOWN', '', #184, #123 ) ;
#265 = ORIENTED_EDGE ( 'NONE', *, *, #33, .F. ) ;
#266 = AXIS2_PLACEMENT_3D ( 'NONE', #120, #145, #25 ) ;
#267 = VERTEX_POINT ( 'NONE', #106 ) ;
#268 = DIRECTION ( 'NONE',  ( 0.000000000000000000, 0.000000000000000000, 1.000000000000000000 ) ) ;
#269 = ORIENTED_EDGE ( 'NONE', *, *, #12, .T. ) ;
#270 = SURFACE_SIDE_STYLE ('',( #118 ) ) ;
ENDSEC;
END-ISO-10303-21;
